#!OML:ASF E:\motion texture\Top Level 1\Subject 1\Session 1\male.ASF
:FULLY-SPECIFIED
:DEGREES
163
root 4.10642 17.5623 6.42624 179.987 -81.0997 -171.05
lowerback 6.47553 -1.69444 6.3116
upperback 1.0101 -1.90268 6.44812
thorax -2.56246 -1.09265 3.32819
lowerneck -12.2352 0.739493 -1.67289
upperneck 3.90918 1.24414 -0.37582
head 3.43468 0.557051 0.25637
rclavicle 4.17448e-014 2.54444e-014
rhumerus -40.3943 -3.18242 -66.8267
rradius 79.7285
rwrist 12.3042
rhand -24.4305 -29.8814
rfingers 7.12502
rthumb 2.06155 -59.8512
lclavicle 4.17448e-014 2.54444e-014
lhumerus -33.497 -6.43529 93.0375
lradius 60.702
lwrist -27.824
lhand -17.2016 11.7626
lfingers 7.12502
lthumb 9.04082 41.5489
rfemur -36.6895 -4.53978 17.1506
rtibia 33.5986
rfoot -5.08664 -3.05938
rtoes 9.4277
lfemur -14.0678 6.67888 -19.1972
ltibia 59.4135
lfoot 1.23944 1.68349
ltoes -10.355
164
root 3.95519 17.5973 6.43887 180.676 -80.5509 -171.687
lowerback 6.665 -1.66349 6.50869
upperback 1.13298 -1.8481 6.51985
thorax -2.54382 -1.07083 3.29362
lowerneck -12.203 0.838535 -1.50045
upperneck 3.90922 1.36098 -0.544595
head 3.42977 0.610269 0.177595
rclavicle 1.39149e-014 4.6118e-014
rhumerus -39.8868 -3.19235 -66.7327
rradius 80.4393
rwrist 12.2561
rhand -24.5298 -29.8651
rfingers 7.12502
rthumb 1.96572 -59.8358
lclavicle 1.39149e-014 4.6118e-014
lhumerus -34.1132 -6.52951 93.1
lradius 61.54
lwrist -27.2473
lhand -17.4089 11.6749
lfingers 7.12502
lthumb 8.84079 41.4697
rfemur -36.0773 -4.63913 17.0503
rtibia 33.3343
rfoot -5.72774 -2.4116
rtoes 8.83727
lfemur -15.1917 7.23919 -19.2469
ltibia 60.4314
lfoot -0.338612 1.85603
ltoes -10.7199
165
root 3.80598 17.6338 6.45339 181.532 -80.0027 -172.481
lowerback 6.86567 -1.61712 6.66169
upperback 1.24828 -1.77292 6.57994
thorax -2.53825 -1.03815 3.26995
lowerneck -12.1815 0.92203 -1.3543
upperneck 3.93072 1.46036 -0.691232
head 3.43478 0.655295 0.109831
rclavicle 1.47101e-014 1.90833e-014
rhumerus -39.395 -3.1803 -66.6088
rradius 81.1561
rwrist 12.1808
rhand -24.7498 -29.9988
rfingers 7.12502
rthumb 1.7532 -59.9713
lclavicle 1.47101e-014 1.90833e-014
lhumerus -34.6809 -6.61543 93.1902
lradius 62.3138
lwrist -26.5281
lhand -17.6478 11.7118
lfingers 7.12502
lthumb 8.61025 41.5162
rfemur -35.4603 -4.76439 16.8842
rtibia 33.012
rfoot -6.46959 -1.84021
rtoes 7.47616
lfemur -16.3138 7.78484 -19.326
ltibia 61.2554
lfoot -1.79873 2.13629
ltoes -11.0308
166
root 3.65845 17.6714 6.46951 182.477 -79.4501 -173.352
lowerback 7.07346 -1.55023 6.78306
upperback 1.35688 -1.67021 6.62891
thorax -2.54297 -0.991313 3.24977
lowerneck -12.17 0.984705 -1.20977
upperneck 3.96832 1.53305 -0.840642
head 3.44793 0.686841 0.039788
rclavicle 1.43125e-014 -1.11319e-014
rhumerus -38.9311 -3.1513 -66.4467
rradius 81.8826
rwrist 12.0424
rhand -25.0638 -30.2034
rfingers 7.12502
rthumb 1.44998 -60.1782
lclavicle 1.43125e-014 -1.11319e-014
lhumerus -35.1748 -6.70087 93.2999
lradius 62.9997
lwrist -25.6964
lhand -17.8604 11.8512
lfingers 7.12502
lthumb 8.40501 41.664
rfemur -34.8579 -4.91372 16.6737
rtibia 32.6754
rfoot -7.32165 -1.40029
rtoes 5.26009
lfemur -17.4218 8.32089 -19.4153
ltibia 61.8884
lfoot -3.08617 2.53934
ltoes -11.3864
167
root 3.5131 17.7089 6.4871 183.509 -78.8844 -174.284
lowerback 7.28424 -1.45851 6.87042
upperback 1.4537 -1.53434 6.6681
thorax -2.56098 -0.927605 3.23498
lowerneck -12.1787 1.03411 -1.07455
upperneck 4.02203 1.58977 -0.984459
head 3.47095 0.710384 -0.0276619
rclavicle -1.82882e-014 -1.06549e-013
rhumerus -38.4866 -3.11873 -66.2397
rradius 82.5993
rwrist 11.8535
rhand -25.4367 -30.4417
rfingers 7.12502
rthumb 1.08983 -60.4187
lclavicle -1.82882e-014 -1.06549e-013
lhumerus -35.5933 -6.77387 93.4177
lradius 63.6029
lwrist -24.7873
lhand -17.951 12.0566
lfingers 7.12502
lthumb 8.31761 41.8728
rfemur -34.3066 -5.08222 16.4326
rtibia 32.3506
rfoot -8.25378 -1.13502
rtoes 2.24178
lfemur -18.5369 8.85535 -19.5125
ltibia 62.3489
lfoot -4.18535 3.06866
ltoes -11.8358
168
root 3.36922 17.7457 6.50576 184.54 -78.301 -175.194
lowerback 7.49804 -1.34379 6.93746
upperback 1.54309 -1.36766 6.70125
thorax -2.588 -0.848421 3.22181
lowerneck -12.2137 1.07263 -0.943587
upperneck 4.09235 1.63324 -1.12662
head 3.5052 0.727109 -0.0945439
rclavicle 5.08889e-014 4.45278e-014
rhumerus -38.067 -3.07229 -65.9855
rradius 83.3122
rwrist 11.5952
rhand -25.8345 -30.6672
rfingers 7.12502
rthumb 0.705637 -60.6457
lclavicle 5.08889e-014 4.45278e-014
lhumerus -35.9221 -6.81323 93.5301
lradius 64.1209
lwrist -23.8357
lhand -17.9152 12.278
lfingers 7.12502
lthumb 8.35216 42.0929
rfemur -33.819 -5.26376 16.1878
rtibia 32.0845
rfoot -9.22168 -1.05801
rtoes -1.20554
lfemur -19.6418 9.39063 -19.5933
ltibia 62.6483
lfoot -5.13151 3.71436
ltoes -12.357
169
root 3.2267 17.7809 6.5251 185.53 -77.7038 -176.046
lowerback 7.72009 -1.20864 6.99178
upperback 1.62442 -1.17244 6.728
thorax -2.62781 -0.755064 3.20582
lowerneck -12.2739 1.10113 -0.813119
upperneck 4.17361 1.6634 -1.26139
head 3.54841 0.737337 -0.159717
rclavicle -2.54444e-014 -6.52014e-014
rhumerus -37.671 -3.01714 -65.6822
rradius 84.0077
rwrist 11.2942
rhand -26.2438 -30.9231
rfingers 7.12502
rthumb 0.310306 -60.9026
lclavicle -2.54444e-014 -6.52014e-014
lhumerus -36.1817 -6.80286 93.6215
lradius 64.5803
lwrist -22.877
lhand -17.7197 12.46
lfingers 7.12502
lthumb 8.54084 42.2673
rfemur -33.406 -5.44718 15.9551
rtibia 31.9042
rfoot -10.1556 -1.1766
rtoes -4.6758
lfemur -20.7351 9.92315 -19.6438
ltibia 62.8066
lfoot -5.96739 4.44978
ltoes -12.9095
170
root 3.08545 17.8133 6.54477 186.458 -77.0937 -176.824
lowerback 7.95384 -1.05606 7.03667
upperback 1.70162 -0.952613 6.74826
thorax -2.67827 -0.649517 3.18521
lowerneck -12.363 1.12535 -0.689569
upperneck 4.2599 1.68763 -1.37447
head 3.59899 0.74529 -0.216829
rclavicle 2.22639e-014 -3.65764e-014
rhumerus -37.2874 -2.95965 -65.3321
rradius 84.6666
rwrist 10.9761
rhand -26.6496 -31.2014
rfingers 7.12502
rthumb -0.0816853 -61.1811
lclavicle 2.22639e-014 -3.65764e-014
lhumerus -36.3728 -6.72976 93.6772
lradius 64.9941
lwrist -21.9372
lhand -17.364 12.584
lfingers 7.12502
lthumb 8.88406 42.377
rfemur -33.0865 -5.62117 15.7456
rtibia 31.8548
rfoot -11.0083 -1.46307
rtoes -7.72318
lfemur -21.8117 10.4466 -19.6535
ltibia 62.8415
lfoot -6.74533 5.25803
ltoes -13.2524
171
root 2.94548 17.8416 6.56437 187.312 -76.4709 -177.521
lowerback 8.20365 -0.889028 7.07273
upperback 1.77776 -0.711959 6.76065
thorax -2.73858 -0.533663 3.15832
lowerneck -12.4778 1.14719 -0.575331
upperneck 4.34296 1.70777 -1.45617
head 3.65321 0.752377 -0.262137
rclavicle -4.05521e-014 5.08889e-014
rhumerus -36.9134 -2.90112 -64.9386
rradius 85.2765
rwrist 10.6819
rhand -27.056 -31.4723
rfingers 7.12502
rthumb -0.474176 -61.4515
lclavicle -4.05521e-014 5.08889e-014
lhumerus -36.516 -6.58564 93.6819
lradius 65.3945
lwrist -21.0376
lhand -16.866 12.6151
lfingers 7.12502
lthumb 9.3646 42.3871
rfemur -32.8786 -5.77316 15.5668
rtibia 31.9776
rfoot -11.7523 -1.89198
rtoes -10.1698
lfemur -22.8672 10.9536 -19.613
ltibia 62.773
lfoot -7.56369 6.10774
ltoes -13.5928
172
root 2.80667 17.8646 6.58314 188.117 -75.8509 -178.182
lowerback 8.47582 -0.716449 7.0917
upperback 1.86018 -0.462931 6.75831
thorax -2.80452 -0.413351 3.12351
lowerneck -12.5884 1.172 -0.465583
upperneck 4.39434 1.72875 -1.50106
head 3.69509 0.761762 -0.294504
rclavicle -7.95139e-016 -3.65764e-014
rhumerus -36.5312 -2.85369 -64.5158
rradius 85.8063
rwrist 10.4513
rhand -27.4716 -31.7322
rfingers 7.12502
rthumb -0.875611 -61.7101
lclavicle -7.95139e-016 -3.65764e-014
lhumerus -36.6277 -6.37225 93.6216
lradius 65.7995
lwrist -20.1857
lhand -16.2948 12.5353
lfingers 7.12502
lthumb 9.91579 42.2818
rfemur -32.7688 -5.8944 15.4039
rtibia 32.2809
rfoot -12.3572 -2.45667
rtoes -11.9566
lfemur -23.8802 11.4253 -19.521
ltibia 62.6079
lfoot -8.39014 6.97659
ltoes -13.8049
173
root 2.66924 17.8807 6.60072 188.916 -75.2388 -178.857
lowerback 8.77006 -0.541347 7.07826
upperback 1.95182 -0.211184 6.73842
thorax -2.87284 -0.291064 3.0866
lowerneck -12.7 1.19941 -0.360665
upperneck 4.41131 1.74993 -1.5091
head 3.72454 0.773107 -0.313796
rclavicle 1.51076e-014 1.19271e-013
rhumerus -36.1345 -2.82538 -64.0676
rradius 86.2473
rwrist 10.3294
rhand -27.9086 -31.8946
rfingers 7.12502
rthumb -1.29763 -61.8704
lclavicle 1.51076e-014 1.19271e-013
lhumerus -36.7175 -6.09082 93.4887
lradius 66.2218
lwrist -19.4106
lhand -15.712 12.3372
lfingers 7.12502
lthumb 10.478 42.0561
rfemur -32.7654 -5.99541 15.243
rtibia 32.7755
rfoot -12.8323 -3.12487
rtoes -13.1639
lfemur -24.8499 11.8467 -19.3857
ltibia 62.3638
lfoot -9.25755 7.84542
ltoes -14.0513
174
root 2.53355 17.8884 6.61652 189.742 -74.6546 -179.594
lowerback 9.08827 -0.374011 7.01961
upperback 2.05665 0.0281612 6.69631
thorax -2.9406 -0.173948 3.05129
lowerneck -12.801 1.23194 -0.261871
upperneck 4.38368 1.77441 -1.47835
head 3.73555 0.7881 -0.318936
rclavicle -1.11319e-014 -1.90833e-014
rhumerus -35.705 -2.82815 -63.6067
rradius 86.5823
rwrist 10.3594
rhand -28.3778 -31.9309
rfingers 7.12502
rthumb -1.75084 -61.9035
lclavicle -1.11319e-014 -1.90833e-014
lhumerus -36.7927 -5.73191 93.2679
lradius 66.6795
lwrist -18.7534
lhand -15.1512 12.0411
lfingers 7.12502
lthumb 11.0189 41.7319
rfemur -32.8488 -6.08498 15.0622
rtibia 33.4359
rfoot -13.1672 -3.86244
rtoes -13.8237
lfemur -25.7699 12.1949 -19.2136
ltibia 62.0533
lfoot -10.1245 8.69911
ltoes -14.3479
175
root 2.39968 17.8864 6.63027 190.622 -74.1082 -180.435
lowerback 9.433 -0.218852 6.90624
upperback 2.17943 0.247803 6.62494
thorax -3.00446 -0.065289 3.01623
lowerneck -12.8715 1.26769 -0.152603
upperneck 4.29762 1.79785 -1.42551
head 3.71963 0.804203 -0.318908
rclavicle -1.43125e-014 4.77083e-014
rhumerus -35.2293 -2.89357 -63.1447
rradius 86.7939
rwrist 10.5798
rhand -28.8967 -31.8143
rfingers 7.12502
rthumb -2.25193 -61.7821
lclavicle -1.43125e-014 4.77083e-014
lhumerus -36.8499 -5.29732 92.9417
lradius 67.1834
lwrist -18.2457
lhand -14.5996 11.6785
lfingers 7.12502
lthumb 11.5509 41.3402
rfemur -32.9846 -6.1728 14.8411
rtibia 34.2204
rfoot -13.3511 -4.58464
rtoes -13.9589
lfemur -26.6315 12.4611 -19.0136
ltibia 61.6918
lfoot -10.9435 9.53147
ltoes -14.7156
176
root 2.26778 17.8738 6.64162 191.522 -73.6158 -181.357
lowerback 9.81035 -0.0852206 6.74605
upperback 2.32058 0.435763 6.52442
thorax -3.0674 0.0287298 2.97884
lowerneck -12.9133 1.31278 -0.0387454
upperneck 4.15912 1.82946 -1.34622
head 3.67921 0.825865 -0.310558
rclavicle -1.90833e-014 -6.20208e-014
rhumerus -34.6955 -3.03959 -62.6973
rradius 86.8744
rwrist 10.997
rhand -29.4945 -31.5709
rfingers 7.12502
rthumb -2.82923 -61.5319
lclavicle -1.90833e-014 -6.20208e-014
lhumerus -36.884 -4.77087 92.4972
lradius 67.7332
lwrist -17.9332
lhand -14.0625 11.2949
lfingers 7.12502
lthumb 12.0689 40.9269
rfemur -33.1407 -6.26127 14.5788
rtibia 35.0909
rfoot -13.3841 -5.20182
rtoes -13.5361
lfemur -27.4316 12.638 -18.7743
ltibia 61.2917
lfoot -11.6865 10.3466
ltoes -15.1232
177
root 2.13787 17.8502 6.65035 192.384 -73.1836 -182.305
lowerback 10.2233 0.0245434 6.5552
upperback 2.4783 0.589901 6.39605
thorax -3.13266 0.106622 2.93209
lowerneck -12.9226 1.36534 0.084574
upperneck 3.97817 1.86692 -1.24634
head 3.61732 0.851588 -0.296969
rclavicle -3.65764e-014 8.5875e-014
rhumerus -34.0925 -3.29709 -62.2784
rradius 86.807
rwrist 11.6046
rhand -30.2223 -31.2949
rfingers 7.12502
rthumb -3.53209 -61.2454
lclavicle -3.65764e-014 8.5875e-014
lhumerus -36.8954 -4.14682 91.9264
lradius 68.3283
lwrist -17.8265
lhand -13.5334 10.9232
lfingers 7.12502
lthumb 12.579 40.5245
rfemur -33.2874 -6.33698 14.2864
rtibia 36.0196
rfoot -13.2854 -5.66948
rtoes -12.579
lfemur -28.1718 12.7349 -18.4771
ltibia 60.8641
lfoot -12.3363 11.1492
ltoes -15.5423
